<?xml version="1.0" encoding="utf-8"?>
<!-- Generator: Adobe Illustrator 18.1.1, SVG Export Plug-In . SVG Version: 6.00 Build 0)  -->
<!DOCTYPE svg PUBLIC "-//W3C//DTD SVG 1.1//EN" "http://www.w3.org/Graphics/SVG/1.1/DTD/svg11.dtd">
<svg version="1.1" id="OUTLINES" xmlns="http://www.w3.org/2000/svg" xmlns:xlink="http://www.w3.org/1999/xlink" x="0px" y="0px"
	 viewBox="0 0 172.6 67.4" enable-background="new 0 0 172.6 67.4" xml:space="preserve">
<g>
	<path fill="#FFFFFF" d="M93.1,19.5l2.1,7.4h-1.6l-0.4-1.5h-2.1l-0.4,1.5h-1.5l2.2-7.4H93.1z M92.8,24.1l-0.7-3l-0.7,3H92.8z"/>
	<path fill="#FFFFFF" d="M100.8,24.3c-0.1,1.5-1,2.7-2.6,2.7c-2.2,0-2.8-2.1-2.8-3.8c0-1.3,0.3-3.8,2.8-3.8c1.1,0,1.7,0.5,2,1
		c0.4,0.6,0.5,1.4,0.5,1.9l-1.5,0.1c0-0.6-0.1-1.6-1-1.6c-0.9,0-1.1,1.1-1.1,2.6c0,1.2,0.1,2.4,1.1,2.4c0.9,0,1-1.1,1.1-1.5
		L100.8,24.3z"/>
	<path fill="#FFFFFF" d="M106,19.5v1.4h-1.5v6h-1.6v-6h-1.5v-1.4H106z"/>
	<path fill="#FFFFFF" d="M108.6,19.5v7.4H107v-7.4H108.6z"/>
	<path fill="#FFFFFF" d="M115.3,23.2c0,1.4-0.2,3.8-2.7,3.8c-2.4,0-2.7-2.3-2.7-3.8c0-1.4,0.3-3.8,2.7-3.8
		C115,19.4,115.3,21.7,115.3,23.2z M111.6,23.2c0,1.6,0.2,2.5,1,2.5c0.8,0,1-0.9,1-2.5c0-1.5-0.1-2.5-1-2.5
		C111.8,20.7,111.6,21.6,111.6,23.2z"/>
	<path fill="#FFFFFF" d="M118.3,19.5l1.9,4.6v-4.6h1.3v7.4h-1.4l-2.2-5.3v5.3h-1.3v-7.4H118.3z"/>
	<path fill="#FFFFFF" d="M128.6,19.5l2.1,7.4h-1.6l-0.4-1.5h-2.1l-0.4,1.5h-1.5l2.2-7.4H128.6z M128.4,24.1l-0.7-3l-0.7,3H128.4z"/>
	<path fill="#FFFFFF" d="M133.5,19.5l1.9,4.6v-4.6h1.3v7.4h-1.4l-2.2-5.3v5.3h-1.3v-7.4H133.5z"/>
	<path fill="#FFFFFF" d="M137.9,19.5h1.7c1.1,0,3.4,0,3.4,3.6c0,1.4-0.4,2.6-1.2,3.2c-0.7,0.5-1.4,0.5-2,0.5h-1.9V19.5z M139.5,25.6
		h0.3c0.6,0,1.5-0.1,1.5-2.5c0-2.3-0.9-2.3-1.5-2.3h-0.3V25.6z"/>
	<path fill="#FFFFFF" d="M88.7,30.8c0.7,0,1.5,0,2,0.6c0.4,0.4,0.5,1,0.5,1.6c0,1.3-0.7,1.7-1,1.9l1.4,3.2h-1.8l-1-2.9H88v2.9h-1.6
		v-7.4H88.7z M88,32v2.1h0.7c0.7,0,1-0.5,1-1.1c0-1-0.7-1-1-1H88z"/>
	<path fill="#FFFFFF" d="M94,30.8v4.2c0,1.1,0,2,1.1,2c0.5,0,0.7-0.2,0.9-0.5c0.1-0.3,0.1-0.7,0.1-1.5v-4.2h1.4V35
		c0,1.3,0,2.3-0.9,2.9c-0.3,0.2-0.8,0.4-1.6,0.4c-2.5,0-2.5-1.7-2.5-3.3v-4.2H94z"/>
	<path fill="#FFFFFF" d="M99,30.8h1.7c1.1,0,3.4,0,3.4,3.6c0,1.4-0.4,2.6-1.2,3.2c-0.7,0.5-1.4,0.5-2,0.5H99V30.8z M100.6,37h0.3
		c0.6,0,1.5-0.1,1.5-2.5c0-2.3-0.9-2.3-1.5-2.3h-0.3V37z"/>
	<path fill="#FFFFFF" d="M109.8,30.8v1.3H107v1.7h2.2v1.3H107v1.8h2.9v1.3h-4.5v-7.4H109.8z"/>
	<path fill="#FFFFFF" d="M118.9,38.2h-1.6v-3h-1.8v3h-1.6v-7.4h1.6v3h1.8v-3h1.6V38.2z"/>
	<path fill="#FFFFFF" d="M121.9,30.8v4.2c0,1.1,0,2,1.1,2c0.5,0,0.7-0.2,0.9-0.5c0.1-0.3,0.1-0.7,0.1-1.5v-4.2h1.4V35
		c0,1.3,0,2.3-0.9,2.9c-0.3,0.2-0.8,0.4-1.6,0.4c-2.5,0-2.5-1.7-2.5-3.3v-4.2H121.9z"/>
	<path fill="#FFFFFF" d="M129.3,30.8l1,4.6l1.2-4.6h2.3v7.4h-1.5V32l-1.5,6.2h-1.2l-1.4-6.2v6.2h-1.3v-7.4H129.3z"/>
	<path fill="#FFFFFF" d="M140.5,34.5c0,1.4-0.2,3.8-2.7,3.8c-2.4,0-2.7-2.3-2.7-3.8c0-1.4,0.3-3.8,2.7-3.8
		C140.2,30.7,140.5,33,140.5,34.5z M136.8,34.5c0,1.6,0.2,2.5,1,2.5c0.8,0,1-0.9,1-2.5c0-1.5-0.1-2.5-1-2.5
		C137,32.1,136.8,32.9,136.8,34.5z"/>
	<path fill="#FFFFFF" d="M144.1,30.8c0.7,0,1.5,0,2,0.6c0.4,0.4,0.5,1,0.5,1.6c0,1.3-0.7,1.7-1,1.9l1.4,3.2h-1.8l-1-2.9h-0.8v2.9
		h-1.6v-7.4H144.1z M143.4,32v2.1h0.7c0.7,0,1-0.5,1-1.1c0-1-0.7-1-1-1H143.4z"/>
</g>
<path id="_xAE_" fill="#FFFFFF" d="M169,59.3c2,0,3.6,1.6,3.6,3.7c0,2.1-1.6,3.7-3.6,3.7c-2,0-3.6-1.6-3.6-3.7
	C165.3,60.9,166.9,59.3,169,59.3L169,59.3z M168.9,59.9c-1.6,0-2.9,1.4-2.9,3.1c0,1.7,1.3,3.1,2.9,3.1c1.6,0,2.9-1.4,2.9-3.1
	C171.9,61.3,170.6,59.9,168.9,59.9L168.9,59.9z M168.3,65.1h-0.7V61c0.3,0,0.7-0.1,1.2-0.1c0.6,0,1,0.1,1.3,0.3
	c0.2,0.2,0.4,0.5,0.4,0.8c0,0.5-0.4,0.9-0.8,1v0c0.4,0.1,0.6,0.4,0.7,1c0.1,0.6,0.2,0.9,0.3,1h-0.7c-0.1-0.1-0.2-0.5-0.3-1
	c-0.1-0.5-0.4-0.7-0.9-0.7h-0.5V65.1z M168.3,62.8h0.5c0.5,0,1-0.2,1-0.7c0-0.4-0.3-0.7-1-0.7c-0.2,0-0.4,0-0.5,0V62.8z"/>
<path id="BOX" fill="#FFFFFF" d="M0.1,0v67.4h163.8V0H0.1z M1.5,14.8h69.6v39.5H1.5V14.8z M144.1,66H1.5V55.6h142.6V66z M162.5,66
	h-17.1V55.6h17.1V66z M162.5,54.3H72.5V1.5h90.1V54.3z M5.4,6.8h-1V2.2H6c0.4,0,0.8,0,1.1,0.3c0.4,0.3,0.6,0.7,0.6,1.2
	c0,0.4-0.1,0.9-0.5,1.2C6.9,5.1,6.5,5.1,6.1,5.1H5.4V6.8z M6,4.3c0.2,0,0.4,0,0.6-0.2C6.7,4,6.7,3.8,6.7,3.7c0-0.2-0.1-0.4-0.2-0.5
	C6.4,3,6.2,3,6,3H5.4v1.2H6z M11.6,6.8h-1.1l-0.3-1H8.9l-0.3,1H7.7l1.4-4.7h1.2L11.6,6.8z M10,5L9.6,3.4L9.1,5H10z M13.2,6.8h-1V2.2
	H14c0.4,0,0.8,0,1.1,0.2c0.3,0.3,0.5,0.7,0.5,1.2c0,0.5-0.3,1-0.7,1.2l0.8,2.1h-1.1L13.9,5h-0.7V6.8z M13.2,4.2h0.5
	c0.2,0,0.4,0,0.6-0.1c0.2-0.1,0.2-0.3,0.2-0.5c0-0.2-0.1-0.4-0.2-0.5C14.2,3,13.9,3,13.7,3h-0.5V4.2z M17.4,3.1V4H19v0.9h-1.6v1h2
	v0.9h-3V2.2h3v0.9H17.4z M23.3,6.8h-0.8l-1.6-3.1h0v3.1h-0.8V2.2h1.1l1.4,2.7h0V2.2h0.8V6.8z M27.1,3.1H26v3.7h-1V3.1H24V2.2h3.1
	V3.1z M30.8,6.8h-1.1l-0.3-1h-1.4l-0.3,1H27l1.4-4.7h1.2L30.8,6.8z M29.3,5l-0.5-1.6L28.4,5H29.3z M34.1,5.9v0.9h-2.7V2.2h1v3.7
	H34.1z M38.2,5.2V4.4h1.7v2.5h-0.5l-0.1-0.5c-0.3,0.4-0.7,0.6-1.2,0.6c-1.2,0-1.8-1.1-1.8-2.4c0-1.3,0.6-2.4,1.8-2.4
	c0.9,0,1.5,0.6,1.7,1.6L39,3.9c0-0.5-0.3-0.9-0.7-0.9c-0.7,0-0.8,1-0.8,1.6c0,0.6,0.2,1.5,0.8,1.5C38.7,6,39,5.7,39,5.2H38.2z
	 M44.1,5c0,0.5,0,1-0.3,1.4c-0.3,0.4-0.8,0.5-1.3,0.5c-0.4,0-1-0.1-1.3-0.4c-0.4-0.4-0.4-0.9-0.4-1.5V2.2h1.1V5c0,0.2,0,0.5,0.1,0.7
	C42,6,42.3,6,42.5,6C42.7,6,43,6,43.2,5.8c0.1-0.2,0.1-0.5,0.1-0.8V2.2h0.9V5z M46,6.8h-1V2.2h1V6.8z M48.2,2.2c0.6,0,1.1,0,1.6,0.5
	c0.5,0.5,0.7,1.1,0.7,1.8c0,0.6-0.2,1.2-0.6,1.7c-0.4,0.5-0.9,0.6-1.5,0.6H47V2.2H48.2z M48,6h0.3c0.4,0,0.7-0.1,0.9-0.5
	c0.2-0.3,0.2-0.7,0.2-1c0-0.4-0.1-0.8-0.3-1.1C48.9,3.1,48.6,3,48.3,3H48V6z M54.6,6.8h-1.1l-0.3-1h-1.4l-0.3,1h-0.9l1.4-4.7h1.2
	L54.6,6.8z M53,5l-0.5-1.6L52.1,5H53z M58.4,6.8h-0.8l-1.6-3.1h0v3.1h-0.8V2.2h1.1l1.4,2.7h0V2.2h0.8V6.8z M61.7,4
	c0-0.5-0.2-1-0.7-1c-0.7,0-0.8,1-0.8,1.6c0,0.6,0.1,1.5,0.8,1.5c0.5,0,0.7-0.4,0.7-0.9l1,0.1C62.7,6.3,62,6.9,61,6.9
	c-1.3,0-1.9-1.1-1.9-2.4c0-1.3,0.6-2.4,1.9-2.4c1.1,0,1.6,0.7,1.7,1.8L61.7,4z M64.5,3.1V4h1.6v0.9h-1.6v1h2v0.9h-3V2.2h3v0.9H64.5z
	 M21.3,9.9c-0.1-0.4-0.4-0.6-0.7-0.6c-0.3,0-0.6,0.1-0.6,0.4c0,0.3,0.4,0.4,0.6,0.5c0.3,0.1,0.8,0.2,1.1,0.4
	c0.3,0.3,0.6,0.6,0.6,1.1c0,0.5-0.2,0.9-0.5,1.2c-0.3,0.3-0.8,0.4-1.2,0.4c-0.8,0-1.5-0.4-1.7-1.3l0.9-0.2c0.1,0.5,0.4,0.7,0.9,0.7
	c0.3,0,0.7-0.1,0.7-0.5s-0.5-0.5-0.7-0.5C19.8,11.3,19,11,19,10c0-0.4,0.2-0.8,0.5-1.1c0.3-0.3,0.7-0.4,1.1-0.4
	c0.7,0,1.3,0.3,1.6,1.1L21.3,9.9z M26.3,11.4c0,0.5,0,1-0.3,1.4c-0.3,0.4-0.8,0.5-1.3,0.5c-0.4,0-1-0.1-1.3-0.4
	c-0.4-0.4-0.4-0.9-0.4-1.5V8.6H24v2.8c0,0.2,0,0.5,0.1,0.7c0.1,0.2,0.4,0.3,0.6,0.3c0.2,0,0.5-0.1,0.6-0.3c0.1-0.2,0.1-0.5,0.1-0.8
	V8.6h0.9V11.4z M28.8,11.6v-0.9h1.7v2.5h-0.5l-0.1-0.5c-0.3,0.4-0.7,0.6-1.2,0.6c-1.2,0-1.8-1.1-1.8-2.4c0-1.3,0.6-2.4,1.8-2.4
	c0.9,0,1.5,0.6,1.7,1.6l-0.9,0.1c0-0.5-0.3-0.9-0.8-0.9c-0.7,0-0.8,1-0.8,1.6c0,0.6,0.2,1.5,0.8,1.5c0.4,0,0.7-0.3,0.7-0.8H28.8z
	 M33,11.6v-0.9h1.7v2.5h-0.5l-0.1-0.5c-0.3,0.4-0.7,0.6-1.2,0.6c-1.2,0-1.8-1.1-1.8-2.4c0-1.3,0.6-2.4,1.8-2.4
	c0.9,0,1.5,0.6,1.7,1.6l-0.9,0.1c0-0.5-0.3-0.9-0.8-0.9c-0.7,0-0.8,1-0.8,1.6c0,0.6,0.2,1.5,0.8,1.5c0.4,0,0.7-0.3,0.7-0.8H33z
	 M36.6,9.5v0.9h1.6v0.9h-1.6v1h2v0.9h-3V8.6h3v0.9H36.6z M41.5,9.9c-0.1-0.4-0.4-0.6-0.7-0.6c-0.3,0-0.6,0.1-0.6,0.4
	c0,0.3,0.4,0.4,0.6,0.5c0.3,0.1,0.8,0.2,1.1,0.4c0.3,0.3,0.6,0.6,0.6,1.1c0,0.5-0.2,0.9-0.5,1.2c-0.3,0.3-0.8,0.4-1.2,0.4
	c-0.8,0-1.5-0.4-1.7-1.3l0.9-0.2c0.1,0.5,0.4,0.7,0.9,0.7c0.3,0,0.7-0.1,0.7-0.5s-0.5-0.5-0.7-0.5c-0.8-0.2-1.5-0.4-1.5-1.4
	c0-0.4,0.2-0.8,0.5-1.1c0.3-0.3,0.7-0.4,1.1-0.4c0.7,0,1.4,0.3,1.6,1.1L41.5,9.9z M46,9.5h-1.1v3.7h-1V9.5h-1.1V8.6H46V9.5z
	 M47.6,9.5v0.9h1.6v0.9h-1.6v1h2v0.9h-3V8.6h3v0.9H47.6z M51.5,8.6c0.6,0,1.1,0,1.6,0.5c0.5,0.5,0.7,1.1,0.7,1.8
	c0,0.6-0.2,1.2-0.6,1.7c-0.4,0.5-0.9,0.6-1.5,0.6h-1.4V8.6H51.5z M51.3,12.4h0.3c0.4,0,0.7-0.1,0.9-0.5c0.2-0.3,0.2-0.7,0.2-1
	c0-0.4-0.1-0.8-0.3-1.1c-0.2-0.3-0.5-0.4-0.8-0.4h-0.3V12.4z"/>
<g>
	<path fill="#FFFFFF" d="M153.9,57.8c-4.1,0-7.4,1.5-7.4,3.3c0,1.8,3.3,3.3,7.4,3.3c4.1,0,7.4-1.5,7.4-3.3
		C161.3,59.3,158,57.8,153.9,57.8z M160.8,60.9h-1.4c-0.1-0.8-0.6-1.5-1.5-2.1C159.6,59.3,160.6,60,160.8,60.9z M159,60.9h-1.7
		c-0.1-0.9-0.5-1.8-1.2-2.3C157.6,59,158.8,59.8,159,60.9z M153.9,64c-1.6,0-2.9-1.3-2.9-2.8s1.3-2.8,2.9-2.8c1.6,0,2.8,1.3,2.8,2.8
		S155.5,64,153.9,64z M150.6,60.9h-1.7c0.2-1,1.3-1.9,2.9-2.3C151.1,59.1,150.6,59.9,150.6,60.9z M149.9,58.8
		c-0.9,0.5-1.4,1.3-1.5,2.1H147C147.2,60,148.3,59.3,149.9,58.8z M147,61.4h1.4c0.1,0.8,0.7,1.5,1.5,2
		C148.3,62.9,147.2,62.2,147,61.4z M148.9,61.4h1.7c0.1,0.9,0.5,1.8,1.2,2.3C150.2,63.3,149,62.4,148.9,61.4z M157.2,61.4h1.7
		c-0.2,1-1.3,1.9-2.9,2.3C156.7,63.1,157.2,62.3,157.2,61.4z M157.9,63.4c0.9-0.5,1.4-1.3,1.5-2h1.4
		C160.6,62.2,159.5,62.9,157.9,63.4z"/>
	<g>
		<path fill="#FFFFFF" d="M154,58.3"/>
		<path fill="#FFFFFF" d="M154,58.3"/>
		<circle fill="#FFFFFF" cx="153.9" cy="61.1" r="0.4"/>
		<path fill="#FFFFFF" d="M153.9,59.4l0.5-0.5c-0.3-0.3-0.7-0.3-1.1,0L153.9,59.4z"/>
		<circle fill="#FFFFFF" cx="155.1" cy="60" r="0.7"/>
		<circle fill="#FFFFFF" cx="152.8" cy="60" r="0.7"/>
		<circle fill="#FFFFFF" cx="152.8" cy="62.3" r="0.7"/>
		<circle fill="#FFFFFF" cx="155" cy="62.2" r="0.7"/>
		<path fill="#FFFFFF" d="M153.9,62.8l-0.5,0.5c0.3,0.3,0.7,0.3,1.1,0L153.9,62.8z"/>
		<path fill="#FFFFFF" d="M155.6,61.1l0.5,0.5c0.3-0.3,0.3-0.7,0-1.1L155.6,61.1z"/>
		<path fill="#FFFFFF" d="M152.2,61.1l-0.5,0.5c-0.3-0.3-0.3-0.7,0-1.1L152.2,61.1z"/>
	</g>
</g>
<g id="Some_Material_May_Not_Be_Suitable_for_Children">
	<path fill="#FFFFFF" d="M6.4,59.3c-0.1-0.5-0.4-0.7-0.7-0.7c-0.3,0-0.6,0.1-0.6,0.5c0,0.4,0.4,0.5,0.6,0.6c0.3,0.1,0.8,0.2,1.1,0.5
		c0.3,0.3,0.6,0.8,0.6,1.3c0,0.5-0.2,1.1-0.5,1.4c-0.3,0.3-0.8,0.5-1.2,0.5c-0.8,0-1.5-0.5-1.7-1.5l0.9-0.3c0.1,0.6,0.4,0.8,0.9,0.8
		c0.3,0,0.7-0.1,0.7-0.6c0-0.5-0.5-0.6-0.7-0.6c-0.8-0.2-1.5-0.5-1.5-1.7c0-0.5,0.2-1,0.5-1.3c0.3-0.3,0.7-0.5,1.1-0.5
		C6.4,57.7,7,58,7.3,59L6.4,59.3z"/>
	<path fill="#FFFFFF" d="M10.9,61.3c0,1.2-0.6,2.1-1.5,2.1c-1,0-1.5-1-1.5-2.1c0-1.2,0.5-2.1,1.5-2.1C10.4,59.1,10.9,60.1,10.9,61.3
		z M8.8,61.1c0,0.5,0,1.5,0.5,1.5c0.5,0,0.5-0.8,0.5-1.3c0-0.3,0-0.7-0.1-1c-0.1-0.3-0.2-0.4-0.4-0.4C8.9,59.9,8.8,60.7,8.8,61.1z"
		/>
	<path fill="#FFFFFF" d="M12.3,59.2v0.6h0c0.2-0.5,0.5-0.7,0.9-0.7c0.4,0,0.7,0.2,0.9,0.7c0.2-0.5,0.5-0.7,0.9-0.7
		c0.3,0,0.6,0.1,0.8,0.4c0.2,0.3,0.2,0.8,0.2,1.2v2.6H15v-2.2c0-0.2,0-0.6,0-0.7c0-0.3-0.2-0.3-0.4-0.3c-0.2,0-0.3,0.1-0.4,0.3
		c-0.1,0.2-0.1,0.5-0.1,0.7v2.2h-0.9v-2.2c0-0.4,0.1-1.1-0.4-1.1c-0.5,0-0.5,0.6-0.5,1.1v2.2h-0.9v-4.1H12.3z"/>
	<path fill="#FFFFFF" d="M17.5,61.5l0,0.2c0,0.5,0.2,0.9,0.6,0.9c0.3,0,0.6-0.3,0.6-0.6l0.8,0.1c0,0.2-0.4,1.4-1.4,1.4
		c-0.9,0-1.6-0.9-1.6-2.1c0-1.2,0.6-2.2,1.5-2.2c0.4,0,0.9,0.3,1.2,0.7c0.3,0.5,0.3,1.1,0.3,1.6H17.5z M18.6,60.8
		c0-0.4-0.1-0.9-0.5-0.9c-0.4,0-0.6,0.4-0.6,0.9H18.6z"/>
	<path fill="#FFFFFF" d="M24.7,63.3H24l-1-4.5h0v4.5h-0.8v-5.6h1.6l0.7,3.3l0.8-3.3h1.6v5.6h-1v-4.5h0L24.7,63.3z"/>
	<path fill="#FFFFFF" d="M29.5,63.3c0-0.2-0.1-0.4,0-0.6c-0.3,0.5-0.5,0.7-1,0.7c-0.6,0-1-0.4-1-1.2c0-0.6,0.3-1,0.7-1.2
		c0.4-0.2,0.9-0.2,1.3-0.3v-0.1c0-0.2,0-0.4-0.1-0.5c-0.1-0.1-0.2-0.2-0.4-0.2c-0.3,0-0.5,0.2-0.5,0.6l-0.9-0.1
		c0.1-1,0.8-1.3,1.5-1.3c0.3,0,0.7,0.1,1,0.4c0.3,0.3,0.3,0.8,0.3,1.3v1.9c0,0.2,0,0.4,0.1,0.6H29.5z M29.4,61.3c-0.3,0-1,0.2-1,0.8
		c0,0.3,0.2,0.5,0.4,0.5c0.2,0,0.4-0.1,0.5-0.3c0.1-0.3,0.1-0.5,0.1-0.8V61.3z"/>
	<path fill="#FFFFFF" d="M32.9,60.1h-0.7v1.6c0,0.5,0,0.7,0.4,0.7c0.1,0,0.2,0,0.3,0v0.9c-0.2,0.1-0.4,0.1-0.6,0.1
		c-0.3,0-0.6,0-0.8-0.3c-0.3-0.3-0.3-0.8-0.3-1.2v-1.8h-0.5v-0.9h0.6l0.1-1.2l0.8-0.1v1.3h0.7V60.1z"/>
	<path fill="#FFFFFF" d="M34.3,61.5l0,0.2c0,0.5,0.2,0.9,0.6,0.9c0.3,0,0.6-0.3,0.6-0.6l0.8,0.1c0,0.2-0.4,1.4-1.4,1.4
		c-0.9,0-1.6-0.9-1.6-2.1c0-1.2,0.6-2.2,1.5-2.2c0.4,0,0.9,0.3,1.2,0.7c0.3,0.5,0.3,1.1,0.3,1.6H34.3z M35.4,60.8
		c0-0.4-0.1-0.9-0.5-0.9c-0.4,0-0.6,0.4-0.6,0.9H35.4z"/>
	<path fill="#FFFFFF" d="M37.8,59.2V60h0c0.1-0.4,0.3-0.9,0.7-0.9l0.2,0v1.2c-0.7,0-0.8,0.7-0.8,1.4v1.6H37v-4.1H37.8z"/>
	<path fill="#FFFFFF" d="M40.1,58.8h-0.9v-1.2h0.9V58.8z M40.1,63.3h-0.9v-4.1h0.9V63.3z"/>
	<path fill="#FFFFFF" d="M42.7,63.3c0-0.2-0.1-0.4,0-0.6c-0.3,0.5-0.5,0.7-1,0.7c-0.6,0-1-0.4-1-1.2c0-0.6,0.3-1,0.7-1.2
		c0.4-0.2,0.9-0.2,1.3-0.3v-0.1c0-0.2,0-0.4-0.1-0.5c-0.1-0.1-0.2-0.2-0.4-0.2c-0.3,0-0.5,0.2-0.5,0.6l-0.9-0.1
		c0.1-1,0.8-1.3,1.5-1.3c0.3,0,0.7,0.1,1,0.4c0.3,0.3,0.3,0.8,0.3,1.3v1.9c0,0.2,0,0.4,0.1,0.6H42.7z M42.7,61.3c-0.3,0-1,0.2-1,0.8
		c0,0.3,0.2,0.5,0.4,0.5c0.2,0,0.4-0.1,0.5-0.3c0.1-0.3,0.1-0.5,0.1-0.8V61.3z"/>
	<path fill="#FFFFFF" d="M44.3,57.8h0.9v5.6h-0.9V57.8z"/>
	<path fill="#FFFFFF" d="M50.6,63.3h-0.7l-1-4.5h0v4.5H48v-5.6h1.6l0.7,3.3l0.8-3.3h1.6v5.6h-1v-4.5h0L50.6,63.3z"/>
	<path fill="#FFFFFF" d="M55.4,63.3c0-0.2-0.1-0.4,0-0.6c-0.3,0.5-0.5,0.7-1,0.7c-0.6,0-1-0.4-1-1.2c0-0.6,0.3-1,0.7-1.2
		c0.4-0.2,0.9-0.2,1.3-0.3v-0.1c0-0.2,0-0.4-0.1-0.5c-0.1-0.1-0.2-0.2-0.4-0.2c-0.3,0-0.5,0.2-0.5,0.6l-0.9-0.1
		c0.1-1,0.8-1.3,1.5-1.3c0.3,0,0.7,0.1,1,0.4c0.3,0.3,0.3,0.8,0.3,1.3v1.9c0,0.2,0,0.4,0.1,0.6H55.4z M55.3,61.3c-0.3,0-1,0.2-1,0.8
		c0,0.3,0.2,0.5,0.4,0.5c0.2,0,0.4-0.1,0.5-0.3c0.1-0.3,0.1-0.5,0.1-0.8V61.3z"/>
	<path fill="#FFFFFF" d="M58.4,63.1c-0.2,0.9-0.4,1.7-1.3,1.7c-0.2,0-0.3,0-0.4,0v-0.9c0.2,0,0.3,0.1,0.5,0.1c0.3,0,0.4-0.1,0.5-0.5
		l-1.2-4.1h1l0.6,2.4l0.6-2.4h0.7L58.4,63.1z"/>
	<path fill="#FFFFFF" d="M65.1,63.3h-0.9l-1.6-3.7h0v3.7h-0.8v-5.6h1.1l1.4,3.3h0v-3.3h0.8V63.3z"/>
	<path fill="#FFFFFF" d="M68.8,61.3c0,1.2-0.6,2.1-1.5,2.1c-1,0-1.5-1-1.5-2.1c0-1.2,0.5-2.1,1.5-2.1C68.3,59.1,68.8,60.1,68.8,61.3
		z M66.8,61.1c0,0.5,0,1.5,0.5,1.5c0.5,0,0.5-0.8,0.5-1.3c0-0.3,0-0.7-0.1-1c-0.1-0.3-0.2-0.4-0.4-0.4
		C66.8,59.9,66.8,60.7,66.8,61.1z"/>
	<path fill="#FFFFFF" d="M71.2,60.1h-0.7v1.6c0,0.5,0,0.7,0.4,0.7c0.1,0,0.2,0,0.3,0v0.9c-0.2,0.1-0.4,0.1-0.6,0.1
		c-0.3,0-0.6,0-0.8-0.3c-0.3-0.3-0.3-0.8-0.3-1.2v-1.8h-0.5v-0.9h0.6l0.1-1.2l0.8-0.1v1.3h0.7V60.1z"/>
	<path fill="#FFFFFF" d="M75.8,57.8c0.3,0,0.7,0,1,0.2c0.3,0.3,0.5,0.7,0.5,1.2c0,0.6-0.3,1.1-0.8,1.2v0c0.5,0.1,0.9,0.7,0.9,1.4
		c0,0.5-0.2,0.9-0.5,1.2c-0.3,0.3-0.7,0.3-1.1,0.3h-1.9v-5.6H75.8z M74.9,60h0.7c0.2,0,0.4,0,0.5-0.1c0.1-0.1,0.2-0.3,0.2-0.5
		c0-0.2-0.1-0.4-0.2-0.5c-0.1-0.1-0.4-0.1-0.6-0.1h-0.6V60z M74.9,62.3h0.7c0.2,0,0.4,0,0.6-0.1c0.1-0.1,0.2-0.3,0.2-0.6
		c0-0.2-0.1-0.4-0.2-0.5C76,61,75.8,61,75.6,61h-0.7V62.3z"/>
	<path fill="#FFFFFF" d="M78.8,61.5l0,0.2c0,0.5,0.2,0.9,0.6,0.9c0.3,0,0.6-0.3,0.6-0.6l0.8,0.1c0,0.2-0.4,1.4-1.4,1.4
		c-0.9,0-1.6-0.9-1.6-2.1c0-1.2,0.6-2.2,1.5-2.2c0.4,0,0.9,0.3,1.2,0.7c0.3,0.5,0.3,1.1,0.3,1.6H78.8z M79.9,60.8
		c0-0.4-0.1-0.9-0.5-0.9c-0.4,0-0.6,0.4-0.6,0.9H79.9z"/>
	<path fill="#FFFFFF" d="M85.6,59.3c-0.1-0.5-0.4-0.7-0.7-0.7c-0.3,0-0.6,0.1-0.6,0.5c0,0.4,0.4,0.5,0.6,0.6
		c0.3,0.1,0.8,0.2,1.1,0.5c0.3,0.3,0.6,0.8,0.6,1.3c0,0.5-0.2,1.1-0.5,1.4c-0.3,0.3-0.8,0.5-1.2,0.5c-0.8,0-1.5-0.5-1.7-1.5l0.9-0.3
		c0.1,0.6,0.4,0.8,0.9,0.8c0.3,0,0.7-0.1,0.7-0.6c0-0.5-0.5-0.6-0.7-0.6c-0.8-0.2-1.5-0.5-1.5-1.7c0-0.5,0.2-1,0.5-1.3
		c0.3-0.3,0.7-0.5,1.1-0.5c0.7,0,1.4,0.3,1.6,1.3L85.6,59.3z"/>
	<path fill="#FFFFFF" d="M89.1,63.3v-0.7h0c-0.1,0.5-0.5,0.8-0.9,0.8c-0.3,0-0.6-0.1-0.8-0.5c-0.2-0.4-0.2-0.7-0.2-1.1v-2.6h0.9v2.6
		c0,0.3,0,0.6,0.3,0.6c0.2,0,0.4-0.2,0.5-0.4c0.1-0.2,0-0.4,0-0.6v-2.2h0.9v4.1H89.1z"/>
	<path fill="#FFFFFF" d="M91.6,58.8h-0.9v-1.2h0.9V58.8z M91.6,63.3h-0.9v-4.1h0.9V63.3z"/>
	<path fill="#FFFFFF" d="M94.2,60.1h-0.7v1.6c0,0.5,0,0.7,0.4,0.7c0.1,0,0.2,0,0.3,0v0.9c-0.2,0.1-0.4,0.1-0.6,0.1
		c-0.3,0-0.6,0-0.8-0.3c-0.3-0.3-0.3-0.8-0.3-1.2v-1.8H92v-0.9h0.6l0.1-1.2l0.8-0.1v1.3h0.7V60.1z"/>
	<path fill="#FFFFFF" d="M96.7,63.3c0-0.2,0-0.4,0-0.6c-0.3,0.5-0.5,0.7-1,0.7c-0.6,0-1-0.4-1-1.2c0-0.6,0.3-1,0.7-1.2
		c0.4-0.2,0.9-0.2,1.3-0.3v-0.1c0-0.2,0-0.4-0.1-0.5c-0.1-0.1-0.2-0.2-0.4-0.2c-0.3,0-0.5,0.2-0.5,0.6l-0.9-0.1
		c0.1-1,0.8-1.3,1.5-1.3c0.3,0,0.7,0.1,1,0.4c0.3,0.3,0.3,0.8,0.3,1.3v1.9c0,0.2,0,0.4,0.1,0.6H96.7z M96.6,61.3c-0.3,0-1,0.2-1,0.8
		c0,0.3,0.1,0.5,0.4,0.5c0.2,0,0.4-0.1,0.5-0.3c0.1-0.3,0.1-0.5,0.1-0.8V61.3z"/>
	<path fill="#FFFFFF" d="M98.3,57.8h0.9v2h0c0.2-0.4,0.4-0.6,0.8-0.6c0.9,0,1.2,1.2,1.2,2.1c0,1.1-0.3,2.1-1.3,2.1
		c-0.5,0-0.7-0.2-0.9-0.7c-0.1,0.2-0.1,0.4-0.2,0.6h-0.5V57.8z M99.2,61.6c0,0.2,0,0.5,0.1,0.7c0.1,0.2,0.2,0.3,0.4,0.3
		c0.5,0,0.5-0.9,0.5-1.3c0-0.5,0-1.3-0.5-1.3c-0.4,0-0.5,0.6-0.5,1.1V61.6z"/>
	<path fill="#FFFFFF" d="M101.7,57.8h0.9v5.6h-0.9V57.8z"/>
	<path fill="#FFFFFF" d="M104.2,61.5l0,0.2c0,0.5,0.2,0.9,0.6,0.9c0.3,0,0.6-0.3,0.6-0.6l0.8,0.1c0,0.2-0.4,1.4-1.4,1.4
		c-0.9,0-1.6-0.9-1.6-2.1c0-1.2,0.6-2.2,1.5-2.2c0.4,0,0.9,0.3,1.2,0.7c0.3,0.5,0.3,1.1,0.3,1.6H104.2z M105.3,60.8
		c0-0.4-0.1-0.9-0.5-0.9c-0.4,0-0.6,0.4-0.6,0.9H105.3z"/>
	<path fill="#FFFFFF" d="M109.8,63.3h-0.9v-3.1h-0.4v-0.9h0.4c0-0.4,0-0.8,0.1-1.1c0.2-0.4,0.6-0.5,0.9-0.5c0.1,0,0.3,0,0.5,0.1v0.9
		c-0.1,0-0.2,0-0.3,0c-0.3,0-0.3,0.3-0.3,0.6v0.1h0.6v0.9h-0.6V63.3z"/>
	<path fill="#FFFFFF" d="M113.6,61.3c0,1.2-0.6,2.1-1.5,2.1c-1,0-1.5-1-1.5-2.1c0-1.2,0.5-2.1,1.5-2.1
		C113,59.1,113.6,60.1,113.6,61.3z M111.5,61.1c0,0.5,0,1.5,0.5,1.5c0.5,0,0.5-0.8,0.5-1.3c0-0.3,0-0.7-0.1-1
		c-0.1-0.3-0.2-0.4-0.4-0.4C111.6,59.9,111.5,60.7,111.5,61.1z"/>
	<path fill="#FFFFFF" d="M115,59.2V60h0c0.1-0.4,0.3-0.9,0.7-0.9l0.2,0v1.2c-0.7,0-0.8,0.7-0.8,1.4v1.6h-0.9v-4.1H115z"/>
	<path fill="#FFFFFF" d="M120.8,59.9c0-0.6-0.2-1.2-0.7-1.2c-0.7,0-0.8,1.2-0.8,1.9c0,0.8,0.1,1.7,0.8,1.7c0.5,0,0.7-0.5,0.7-1
		l1,0.1c-0.1,1.3-0.8,2-1.8,2c-1.3,0-1.9-1.3-1.9-2.9c0-1.5,0.6-2.9,1.9-2.9c1.1,0,1.6,0.8,1.7,2.1L120.8,59.9z"/>
	<path fill="#FFFFFF" d="M125.2,63.3h-0.9v-2.2c0-0.4,0-1-0.4-1c-0.2,0-0.4,0.1-0.4,0.3c-0.1,0.2-0.1,0.5-0.1,0.7v2.2h-0.9v-5.6h0.9
		v2h0c0.1-0.4,0.5-0.6,0.8-0.6c0.3,0,0.6,0.1,0.8,0.4c0.2,0.3,0.2,0.7,0.2,1.1V63.3z"/>
	<path fill="#FFFFFF" d="M126.9,58.8h-0.9v-1.2h0.9V58.8z M126.9,63.3h-0.9v-4.1h0.9V63.3z"/>
	<path fill="#FFFFFF" d="M127.6,57.8h0.9v5.6h-0.9V57.8z"/>
	<path fill="#FFFFFF" d="M131.2,63.3v-0.6h0c-0.2,0.4-0.4,0.7-0.8,0.7c-0.9,0-1.1-1.1-1.1-2.1c0-1,0.2-2.2,1.2-2.2
		c0.4,0,0.6,0.1,0.8,0.5v-1.9h0.9v5.6H131.2z M131.1,61c0-0.4,0-1.1-0.4-1.1c-0.5,0-0.5,0.9-0.5,1.4c0,0.4,0,1.2,0.5,1.2
		c0.2,0,0.3-0.1,0.4-0.3c0.1-0.2,0.1-0.4,0.1-0.6V61z"/>
	<path fill="#FFFFFF" d="M133.7,59.2V60h0c0.1-0.4,0.3-0.9,0.7-0.9l0.2,0v1.2c-0.7,0-0.8,0.7-0.8,1.4v1.6h-0.9v-4.1H133.7z"/>
	<path fill="#FFFFFF" d="M135.8,61.5l0,0.2c0,0.5,0.2,0.9,0.6,0.9c0.3,0,0.6-0.3,0.6-0.6l0.8,0.1c0,0.2-0.4,1.4-1.4,1.4
		c-0.9,0-1.6-0.9-1.6-2.1c0-1.2,0.6-2.2,1.5-2.2c0.4,0,0.9,0.3,1.2,0.7c0.3,0.5,0.3,1.1,0.3,1.6H135.8z M136.9,60.8
		c0-0.4-0.1-0.9-0.5-0.9c-0.4,0-0.6,0.4-0.6,0.9H136.9z"/>
	<path fill="#FFFFFF" d="M138.4,59.2h0.9v0.7h0c0.2-0.5,0.4-0.8,0.9-0.8c0.3,0,0.6,0.1,0.8,0.5c0.2,0.3,0.2,0.8,0.2,1.2v2.5h-0.9
		v-2.2c0-0.4,0-1-0.4-1c-0.2,0-0.3,0.1-0.4,0.3c-0.1,0.2-0.1,0.5-0.1,0.7v2.2h-0.9V59.2z"/>
</g>
<g id="PG">
	<path fill="#FFFFFF" d="M18.3,35v-8.6c0-0.9,0.6-1.1,2.5-1.1c4.2-0.1,5.4,0.9,5.7,4c0.1,6-1.9,5.7-7,5.7C19.1,35,18.7,35,18.3,35
		L18.3,35z M22,45.7c-2.5-0.4-3.8-0.7-3.7-3.3L18.2,38c0.8,0,1.7,0,2.4,0c9.6,0,14.8,0.9,14.2-9.1c-0.1-6.9-4.8-6.6-14.9-6.6
		c-3.5,0-6.2,0.1-8.2,0.1c-1.5,0-2.5-0.1-4.6,0.1c-2,0-2.1,1.8-0.3,2.4c2,0.8,3.6,0.2,3.7,2.8v14.9c0,3-1.9,2.8-2.9,3.2
		C5,46,5.3,48.3,7.1,48.4c1,0,2.8,0,5,0c4.5,0,9.8,0,11,0C24.8,48.3,25,45.9,22,45.7L22,45.7z"/>
	<path fill="#FFFFFF" d="M56.6,39.4c-0.2-1.1-1-1.1-2.2-1.4c-2.4-0.3-2.9-2.4-0.3-2.6c3.7,0,0.7,0,3.9,0c2.1,0,6.7-0.1,8,0
		c2.4,0.1,2.9,1.8,0,2.5c-0.8,0.2-2,0.9-2,2.4c0,0.8,0,5.6,0,5.6s-1.3,3.2-13.6,3c-7.6-0.2-13-0.4-13.3-13
		c0-16.3,10.3-14.5,14.3-14.8c5.7,0.1,8.7,0.8,10.3,1.4c2.5,0.9,2.7,2.1,2.7,4.4c0,2.2-0.5,4.3-3,4.5c-3.5,0.3-3.8-1.3-4.1-2.7
		c-0.5-4.2-0.8-4.4-5.3-4.5c-6.6,0-7.3,3.4-7.2,11.2c0.1,5.9,0.2,10.2,6.7,10.1c3.4,0,5.4-0.2,5.4-2.7
		C56.7,42.9,56.9,40.6,56.6,39.4L56.6,39.4z"/>
</g>
</svg>
